<?xml version="1.0" encoding="UTF-8" standalone="no"?>
<!-- Created with Inkscape (http://www.inkscape.org/) -->

<svg
   width="100.0616mm"
   height="50.422176mm"
   viewBox="0 0 100.0616 50.422176"
   version="1.1"
   id="svg5"
   xml:space="preserve"
   inkscape:version="1.2 (dc2aedaf03, 2022-05-15)"
   sodipodi:docname="OFMA.svg"
   inkscape:export-filename="ROUNDED_OFMA.png"
   inkscape:export-xdpi="96"
   inkscape:export-ydpi="96"
   xmlns:inkscape="http://www.inkscape.org/namespaces/inkscape"
   xmlns:sodipodi="http://sodipodi.sourceforge.net/DTD/sodipodi-0.dtd"
   xmlns="http://www.w3.org/2000/svg"
   xmlns:svg="http://www.w3.org/2000/svg"><sodipodi:namedview
     id="namedview7"
     pagecolor="#ffffff"
     bordercolor="#999999"
     borderopacity="1"
     inkscape:showpageshadow="0"
     inkscape:pageopacity="0"
     inkscape:pagecheckerboard="0"
     inkscape:deskcolor="#d1d1d1"
     inkscape:document-units="mm"
     showgrid="false"
     inkscape:zoom="0.50646226"
     inkscape:cx="626.89765"
     inkscape:cy="794.72851"
     inkscape:window-width="1920"
     inkscape:window-height="991"
     inkscape:window-x="-9"
     inkscape:window-y="-9"
     inkscape:window-maximized="1"
     inkscape:current-layer="layer1" /><defs
     id="defs2" /><g
     inkscape:label="Layer 1"
     inkscape:groupmode="layer"
     id="layer1"
     transform="translate(-229.83385,-12.739412)"><g
       id="g2395"
       transform="translate(121.36761,-95.337503)"
       inkscape:export-filename="OFMA.png"
       inkscape:export-xdpi="96"
       inkscape:export-ydpi="96"><path
         id="path300"
         style="fill:#ffffff;fill-opacity:1;stroke-width:15.8887;stroke-linecap:round;stroke-linejoin:round;paint-order:markers fill stroke"
         d="m 119.68468,123.56972 c -7.16539,0 -11.21843,5.44122 -11.21843,12.15326 0,9.39021 5.02272,12.15327 11.21843,12.15327 6.19572,0 11.21844,-3.87127 11.21844,-12.15327 0,-6.71204 -4.09921,-12.15326 -11.21844,-12.15326 z m -0.15968,3.22771 c 6.42453,0 6.94945,4.04172 6.94945,9.02735 0,7.64072 -3.1114,9.17412 -6.94945,9.17412 -3.83803,0 -6.94944,-1.41797 -6.94944,-9.17412 0,-4.98562 1.72614,-9.02735 6.94944,-9.02735 z" /><path
         id="path1430"
         style="fill:#ffffff;fill-opacity:1;stroke:none;stroke-width:0.07;stroke-linecap:round;stroke-linejoin:round;stroke-dasharray:none;stroke-opacity:1;paint-order:markers fill stroke"
         d="m 149.58829,108.07712 c -0.89331,0.007 -1.67949,0.19327 -1.67949,0.19327 0,0 -3.3958,-0.78333 -7.44451,7.3794 -1.13187,2.282 -2.34517,5.80995 -3.50624,9.70793 l -3.6959,0.14676 0.27699,1.06247 3.10988,-0.15761 c -2.86268,9.84477 -5.3268,21.49946 -5.3268,21.49946 0,0 -1.04505,7.50959 -4.37545,8.94623 0,0 -0.68576,0.22866 -1.56734,-0.75086 -0.88157,-0.97953 -2.44884,-1.3064 -3.19981,-0.58808 -0.75097,0.71832 -0.81602,2.54712 1.33894,2.90628 2.15496,0.35916 7.4769,-0.32644 10.38283,-6.79132 2.90592,-6.46487 3.88564,-17.04385 6.1712,-23.83523 0,0 0.15129,-0.59906 0.42271,-1.5813 l 3.98735,-0.20206 0.41548,-0.96945 -4.11861,0.1633 c 1.37971,-4.8308 4.55822,-14.85005 7.48947,-16.00161 0,0 1.4778,-0.87729 1.38544,1.29295 -0.0924,2.17024 -0.32311,3.23252 1.66243,2.53989 1.98554,-0.69262 1.38487,-3.60198 0.23048,-4.47931 -0.50504,-0.38383 -1.26426,-0.48659 -1.95905,-0.48111 z" /><path
         style="fill:#ffffff;fill-opacity:1;stroke:none;stroke-width:0.07;stroke-linecap:round;stroke-linejoin:round;stroke-dasharray:none;stroke-opacity:1;paint-order:markers fill stroke"
         d="m 146.99444,124.92242 c 0,0 0.39181,0.97952 -0.1306,1.24073 -0.52242,0.26121 0.39181,0.45711 1.50194,0.52241 1.11013,0.0653 1.11013,1.24074 0.78362,20.50478 h 4.11402 v -17.8927 c 0,0 5.09354,-3.461 8.35863,-2.22026 3.26509,1.24073 2.35087,5.68126 2.35087,20.11297 h 4.17932 v -17.89271 c 0,0 8.48924,-5.61596 10.12178,-1.50194 0,0 1.76315,-0.39181 1.11013,19.39465 0,0 3.85281,0.97952 3.85281,-2.61208 0,-3.5916 0,-14.75821 0,-14.75821 0,0 -1.04483,-6.07308 -7.2485,-6.00777 -6.20368,0.0653 -8.75045,3.5916 -8.75045,3.5916 0,0 -1.24074,-4.24462 -6.922,-3.3957 -5.68126,0.84893 -6.98729,2.93859 -6.98729,2.93859 v -2.08966 z"
         id="path1597"
         sodipodi:nodetypes="csscccsccccc" /><path
         style="fill:#0095ff;fill-opacity:1;stroke:none;stroke-width:0.07;stroke-linecap:round;stroke-linejoin:round;stroke-dasharray:none;stroke-opacity:1;paint-order:markers fill stroke"
         d="m 149.70056,121.16418 c 0,0 27.33582,-10.06623 52.08582,-2.86287 0,0 -19.1166,-11.17444 -52.08582,2.86287 z"
         id="path1599" /><path
         id="path1601"
         style="opacity:1;fill:#ffffff;fill-opacity:1;stroke:none;stroke-width:0.07;stroke-linecap:round;stroke-linejoin:round;stroke-dasharray:none;stroke-opacity:1;paint-order:markers fill stroke"
         d="m 197.35333,123.84257 c -6.92629,1.10821 -9.23468,6.37195 -9.32708,12.55944 -0.0924,6.18749 3.60169,11.1743 8.58862,11.359 4.98694,0.1847 7.94215,-2.49339 7.94215,-2.49339 v 1.84691 h 3.97082 v -22.25652 h -3.97082 v 2.2164 c -2.03171,-3.04757 -7.20369,-3.23184 -7.20369,-3.23184 z m 1.16117,2.66237 c 2.97324,-0.0543 6.04252,2.87838 6.04252,2.87838 v 13.20643 c 0,0 -4.06339,2.30838 -6.6492,2.30838 -2.58582,0 -5.26398,-2.30868 -5.07928,-7.57266 0.18471,-5.264 0.92318,-9.14278 4.2478,-10.52804 0.46753,-0.1948 0.95163,-0.2836 1.43816,-0.29249 z" /></g></g></svg>
