<?xml version="1.0" encoding="UTF-8" standalone="no"?>
<!-- Created with Inkscape (http://www.inkscape.org/) -->

<svg
   width="120.59053mm"
   height="107.8525mm"
   viewBox="0 0 120.59053 107.8525"
   version="1.1"
   id="svg5"
   xml:space="preserve"
   xmlns:inkscape="http://www.inkscape.org/namespaces/inkscape"
   xmlns:sodipodi="http://sodipodi.sourceforge.net/DTD/sodipodi-0.dtd"
   xmlns="http://www.w3.org/2000/svg"
   xmlns:svg="http://www.w3.org/2000/svg"><sodipodi:namedview
     id="namedview7"
     pagecolor="#ffffff"
     bordercolor="#999999"
     borderopacity="1"
     inkscape:showpageshadow="0"
     inkscape:pageopacity="0"
     inkscape:pagecheckerboard="0"
     inkscape:deskcolor="#d1d1d1"
     inkscape:document-units="mm"
     showgrid="false"
     showguides="true" /><defs
     id="defs2" /><g
     inkscape:label="Layer 1"
     inkscape:groupmode="layer"
     id="layer1"
     transform="translate(-10.498937,-24.094575)"><path
       id="path194"
       style="fill:#cccccc;fill-opacity:1;stroke-width:1"
       d="m 65.55669,24.094574 c -23.280153,0 -46.560666,0.129881 -47.664274,0.389641 -3.636422,0.855918 -6.292541,3.582929 -7.071919,7.260021 -0.46652,2.201046 -0.407912,65.562064 0.06253,67.560734 0.855908,3.63643 3.58294,6.29254 7.260022,7.07192 0.975108,0.20669 8.33126,0.29714 24.156148,0.29714 25.116012,0 23.784793,0.0897 24.855331,-1.66605 0.284068,-0.46587 0.516764,-1.14515 0.516764,-1.50895 0,-0.36381 -0.232696,-1.04256 -0.516764,-1.50844 -1.070878,-1.75627 0.277621,-1.66656 -25.013461,-1.66656 -25.150218,0 -24.012891,0.0724 -24.866699,-1.57872 -0.34715,-0.67126 -0.401009,-3.19068 -0.401009,-18.648469 V 62.22403 h 48.683333 48.683328 v 7.540625 c 0,4.147332 -0.0893,7.540695 -0.19844,7.540625 -0.10914,-7e-5 -0.84257,-0.244913 -1.62987,-0.544153 -3.26516,-1.241008 -5.78792,-1.667847 -9.81336,-1.659847 -2.53819,0.005 -4.471704,0.151275 -5.713334,0.432015 -9.913172,2.241466 -17.652827,8.93496 -21.029211,18.186485 -1.342096,3.67743 -1.651861,5.54499 -1.644861,9.91154 0.0055,3.38903 0.10416,4.33887 0.675928,6.50193 0.934708,3.53611 2.118954,6.24457 3.94963,9.03252 4.47396,6.81347 12.14614,11.61608 20.189984,12.63903 1.018644,0.12949 3.169034,0.17993 4.779024,0.11213 14.23437,-0.59926 25.63563,-11.39566 27.14615,-25.70592 0.88939,-8.42594 -2.58342,-17.707475 -8.76846,-23.433713 l -1.59318,-1.475362 v -24.0776 c 0,-16.804186 -0.0902,-24.501569 -0.29766,-25.480099 -0.77939,-3.677092 -3.43548,-6.404103 -7.07192,-7.260021 -1.1036,-0.25976 -24.383593,-0.389641 -47.663748,-0.389641 z m 0,6.379456 c 50.9116,0 47.40607,-0.114236 48.2818,1.579232 0.30825,0.596118 0.40153,1.730178 0.40153,4.89014 v 4.113961 H 65.55669 16.873357 v -4.113961 c 0,-3.159962 0.09275,-4.294022 0.401009,-4.89014 C 18.150094,30.359794 14.64509,30.47403 65.55669,30.47403 Z M 16.873357,47.407363 h 48.683333 48.68333 v 4.233333 4.233334 H 65.55669 16.873357 V 51.640696 Z M 36.98169,70.692764 c -10.686998,0 -11.287257,0.0259 -12.092285,0.516764 -0.911338,0.555668 -1.666048,1.75909 -1.666048,2.656168 0,0.89708 0.75471,2.101016 1.666048,2.656686 0.805028,0.490878 1.405287,0.516764 12.092285,0.516764 10.687,0 11.286741,-0.0259 12.091769,-0.516764 0.911338,-0.55567 1.666565,-1.759606 1.666565,-2.656686 0,-0.897078 -0.755227,-2.1005 -1.666565,-2.656168 -0.805028,-0.49088 -1.404769,-0.516764 -12.091769,-0.516764 z m -6.403226,10.582299 c -4.335402,8.9e-4 -4.930601,0.05534 -5.689059,0.517798 -0.911338,0.55567 -1.666048,1.759091 -1.666048,2.656169 0,0.897088 0.75471,2.101017 1.666048,2.656685 0.758458,0.46246 1.353657,0.516491 5.689059,0.517281 5.386208,0.0011 6.01914,-0.150278 6.942728,-1.665014 0.65413,-1.072798 0.65413,-1.944589 0,-3.017387 -0.923588,-1.514738 -1.55652,-1.666532 -6.942728,-1.665532 z M 111.79107,94.1797 c 0.2571,6e-5 0.52179,0.03483 0.81546,0.08992 2.46144,0.46177 3.89247,3.44645 2.71559,5.66322 -0.57996,1.09243 -13.14395,13.48333 -13.99139,13.79864 -0.98993,0.36833 -1.991816,0.33416 -2.959506,-0.10025 -0.43656,-0.19599 -2.42039,-2.00706 -4.408516,-4.02456 -3.831105,-3.88771 -4.212907,-4.53496 -3.796667,-6.4301 0.26087,-1.18771 1.681806,-2.58026 2.857707,-2.80086 1.889069,-0.35439 2.785986,0.0329 4.948536,2.13733 l 2.00814,1.95441 4.883936,-4.89376 c 4.36733,-4.37589 5.53839,-5.39431 6.92671,-5.39399 z" /></g></svg>
