<?xml version="1.0" encoding="UTF-8" standalone="no"?>
<!-- Created with Inkscape (http://www.inkscape.org/) -->

<svg
   width="135.45976mm"
   height="102.10134mm"
   viewBox="0 0 135.45976 102.10134"
   version="1.1"
   id="svg5"
   xml:space="preserve"
   xmlns:inkscape="http://www.inkscape.org/namespaces/inkscape"
   xmlns:sodipodi="http://sodipodi.sourceforge.net/DTD/sodipodi-0.dtd"
   xmlns="http://www.w3.org/2000/svg"
   xmlns:svg="http://www.w3.org/2000/svg"><sodipodi:namedview
     id="namedview7"
     pagecolor="#ffffff"
     bordercolor="#999999"
     borderopacity="1"
     inkscape:showpageshadow="0"
     inkscape:pageopacity="0"
     inkscape:pagecheckerboard="0"
     inkscape:deskcolor="#d1d1d1"
     inkscape:document-units="mm"
     showgrid="false" /><defs
     id="defs2" /><g
     inkscape:label="Layer 1"
     inkscape:groupmode="layer"
     id="layer1"
     transform="translate(-24.221398,-34.589301)"><path
       style="fill:#cccccc;stroke-width:1"
       d="m 33.981942,136.21951 c -3.29662,-0.86057 -6.79834,-3.66988 -8.32181,-6.67632 -1.49384,-2.94794 -1.43847,-1.25777 -1.43847,-43.903208 0,-42.64545 -0.0554,-40.95527 1.43847,-43.90322 0.89433,-1.76488 3.20629,-4.1909 5.0532,-5.3025 3.27382,-1.97041 -1.48777,-1.82705 61.10155,-1.8397 61.666618,-0.0125 57.791108,-0.11342 60.984268,1.58852 1.82692,0.97374 3.88571,3.01939 5.13047,5.09773 1.83816,3.06915 1.75088,0.85786 1.75088,44.35917 0,43.501308 0.0873,41.290008 -1.75088,44.359158 -1.24476,2.07834 -3.30355,4.124 -5.13047,5.09774 -3.19316,1.70193 0.68235,1.60098 -60.984268,1.58851 -52.14836,-0.0105 -56.21408,-0.0433 -57.83294,-0.46588 z M 148.7003,127.37255 c 0.69733,-0.3901 1.26139,-0.99436 1.65364,-1.7715 l 0.59531,-1.17945 V 85.639982 46.858352 l -0.59531,-1.17945 c -0.39225,-0.77714 -0.95631,-1.3814 -1.65364,-1.7715 l -1.05834,-0.59205 H 91.947172 36.252382 l -1.05294,0.59635 c -0.59037,0.33437 -1.31492,1.05892 -1.64929,1.6493 l -0.59635,1.05294 v 39.02604 39.026038 l 0.59635,1.05294 c 0.33437,0.59037 1.05892,1.31492 1.64929,1.64929 l 1.05294,0.59635 h 55.69479 55.694788 z M 46.174262,118.94614 c -1.07951,-0.4282 -2.37183,-1.86151 -2.66711,-2.95808 -0.53242,-1.97728 0.40331,-4.04432 2.23145,-4.92931 1.10367,-0.53428 1.50279,-0.54794 16.00581,-0.54794 16.16193,0 15.88059,-0.0242 17.27967,1.48877 1.47258,1.59247 1.48505,3.94976 0.03,5.67893 -1.34047,1.59305 -1.02773,1.56513 -17.3271,1.54678 -9.18135,-0.0103 -15.14495,-0.11738 -15.55277,-0.27915 z m 76.729298,-6.08674 c -0.85363,-0.34039 -1.80419,-1.2336 -2.27424,-2.13701 -0.44855,-0.86211 -0.48695,-2.93676 -0.0691,-3.7347 0.16645,-0.31786 1.40041,-1.64948 2.74215,-2.95917 3.93164,-3.83773 6.43953,-8.165168 7.83033,-13.511488 0.88496,-3.40188 0.88496,-9.26265 0,-12.66452 -1.41535,-5.44068 -3.89622,-9.68176 -7.98184,-13.64504 -1.42584,-1.38314 -2.71965,-2.8494 -2.87514,-3.25837 -1.05304,-2.7697 1.01914,-5.84411 3.9319,-5.83361 1.68089,0.006 2.63975,0.58821 5.4556,3.31229 3.09414,2.9933 5.33183,6.1108 7.28304,10.14657 2.67263,5.52791 3.89923,11.42839 3.58203,17.23104 -0.50398,9.21914 -3.89785,16.985738 -10.30135,23.573808 -3.41273,3.5111 -5.16162,4.3422 -7.32337,3.4802 z M 46.012782,102.45898 c -2.69261,-1.17204 -3.49304,-4.539268 -1.59334,-6.702898 1.51629,-1.72696 0.37669,-1.64944 24.24644,-1.64944 21.10986,0 21.74345,0.0146 22.74038,0.52318 1.59904,0.81577 2.2607,1.94641 2.2607,3.86304 0,1.33847 -0.11949,1.764758 -0.71266,2.542458 -1.45301,1.90498 -0.0787,1.80374 -24.33045,1.79222 -17.72275,-0.008 -21.94168,-0.0772 -22.61107,-0.36856 z m 64.444648,-1.0241 c -0.78749,-0.41644 -1.34498,-0.97392 -1.76141,-1.761408 -1.05188,-1.98914 -0.73376,-3.39539 1.30851,-5.78429 4.87456,-5.70188 4.87456,-13.70695 0,-19.40882 -1.59352,-1.86398 -2.01176,-2.90182 -1.78332,-4.42519 0.13961,-0.93097 0.43177,-1.45521 1.28836,-2.3118 2.8156,-2.8156 6.09278,-1.31468 9.51641,4.35841 4.41727,7.31961 4.47054,16.70696 0.13575,23.91939 -3.22077,5.358848 -5.78828,6.955728 -8.7043,5.413708 z M 51.851832,83.695002 c -4.37091,-1.09985 -7.49594,-4.39598 -8.29873,-8.7531 -0.45985,-2.49583 -0.37196,-11.98491 0.13152,-14.19853 0.77132,-3.39124 3.35867,-6.35654 6.72297,-7.70502 1.32857,-0.53252 2.00771,-0.59181 7.80387,-0.68125 6.91457,-0.1067 8.63643,0.0817 10.80942,1.18286 2.86934,1.454 5.10349,4.42968 5.72667,7.6274 0.20305,1.04191 0.27591,3.77426 0.21167,7.9375 -0.09,5.82985 -0.14655,6.47088 -0.69249,7.84423 -1.15057,2.89432 -3.4686,5.21122 -6.35628,6.35318 -1.38681,0.54843 -1.97658,0.59642 -8.11015,0.65991 -4.67253,0.0484 -7.00621,-0.0301 -7.94847,-0.26718 z m 13.88592,-8.82066 c 0.29509,-0.28342 0.54484,-1.09991 0.54484,-1.09991 v -5.43186 c 0,-5.77588 -0.12941,-6.51259 -1.23225,-7.01508 -0.40562,-0.18482 -2.65921,-0.29376 -6.07659,-0.29376 h -5.43187 c 0,0 -0.80455,0.103124 -1.08188,0.363558 -0.31815,0.298767 -0.49416,1.212492 -0.49416,1.212492 l 0.0808,5.71766 0.0808,5.71766 0.74235,0.63806 c 0.73366,0.63059 0.80756,0.63807 6.30421,0.63807 h 5.56185 c 0,0 0.73815,-0.19359 1.0019,-0.44689 z"
       id="path248"
       sodipodi:nodetypes="ssssscssssssssscccsscccsscccsscccscssssssccsssssssscsssssssssssscsssssssssscsssssscssscscssscacccsscs"
       inkscape:export-filename="credit_card.svg"
       inkscape:export-xdpi="96"
       inkscape:export-ydpi="96" /></g></svg>
