<?xml version="1.0" encoding="UTF-8" standalone="no"?>
<!-- Created with Inkscape (http://www.inkscape.org/) -->

<svg
   width="120.59076mm"
   height="107.85277mm"
   viewBox="0 0 120.59076 107.85277"
   version="1.1"
   id="svg5"
   xml:space="preserve"
   xmlns:inkscape="http://www.inkscape.org/namespaces/inkscape"
   xmlns:sodipodi="http://sodipodi.sourceforge.net/DTD/sodipodi-0.dtd"
   xmlns="http://www.w3.org/2000/svg"
   xmlns:svg="http://www.w3.org/2000/svg"><sodipodi:namedview
     id="namedview7"
     pagecolor="#ffffff"
     bordercolor="#999999"
     borderopacity="1"
     inkscape:showpageshadow="0"
     inkscape:pageopacity="0"
     inkscape:pagecheckerboard="0"
     inkscape:deskcolor="#d1d1d1"
     inkscape:document-units="mm"
     showgrid="false"
     showguides="true" /><defs
     id="defs2" /><g
     inkscape:label="Layer 1"
     inkscape:groupmode="layer"
     id="layer1"
     transform="translate(-15.747756,-167.26771)"><path
       style="fill:#cccccc;fill-opacity:1;stroke-width:1"
       d="m 104.27514,274.97807 c -8.043858,-1.02295 -15.715658,-5.82566 -20.189628,-12.63913 -1.83068,-2.78797 -3.01499,-5.49633 -3.9497,-9.03244 -0.57177,-2.16306 -0.67052,-3.11278 -0.67605,-6.50181 -0.007,-4.36657 0.30285,-6.23432 1.64495,-9.91175 3.37639,-9.25155 11.11595,-15.94483 21.029138,-18.1863 1.24163,-0.28074 3.17496,-0.42692 5.71317,-0.43197 4.02544,-0.008 6.54817,0.41863 9.81333,1.65964 0.7873,0.29924 1.52076,0.54413 1.6299,0.5442 0.10914,7e-5 0.19843,-3.39315 0.19843,-7.54049 V 205.3974 H 70.805356 22.122016 v 17.87251 c 0,15.45783 0.0542,17.97737 0.40136,18.64865 0.8538,1.65107 -0.28392,1.57884 24.86635,1.57884 25.29114,0 23.94296,-0.0898 25.01384,1.66649 0.28407,0.46588 0.51648,1.1447 0.51648,1.50851 0,0.3638 -0.23241,1.04263 -0.51648,1.5085 -1.07054,1.75575 0.26068,1.6665 -24.85539,1.6665 -15.82492,0 -23.18126,-0.0905 -24.15636,-0.29719 -3.6771,-0.77938 -6.40391,-3.4357 -7.25983,-7.07213 -0.47043,-1.99867 -0.52931,-65.35984 -0.0628,-67.56089 0.77939,-3.6771 3.4357,-6.40391 7.07214,-7.25983 2.20721,-0.51952 93.120804,-0.51952 95.328014,0 3.63644,0.85592 6.29275,3.58273 7.07214,7.25983 0.20741,0.97853 0.29718,8.67589 0.29718,25.48011 v 24.07802 l 1.59328,1.4751 c 6.18504,5.72625 9.65819,15.00799 8.7688,23.43395 -1.51052,14.3103 -12.91185,25.10673 -27.14624,25.70599 -1.61001,0.0678 -3.76073,0.0172 -4.77938,-0.11229 z m -5.604998,-14.84026 c 0.31786,-0.16111 2.512658,-2.21356 4.877348,-4.56101 l 4.29943,-4.26809 4.16724,4.12773 c 4.70836,4.66373 5.12904,4.99429 6.35591,4.99429 2.38464,0 3.99421,-2.50621 2.94236,-4.58146 -0.1611,-0.31785 -2.21358,-2.51268 -4.56105,-4.8774 l -4.26814,-4.29947 4.26814,-4.29948 c 2.34747,-2.36472 4.39995,-4.55955 4.56105,-4.8774 1.05185,-2.07525 -0.55772,-4.58146 -2.94236,-4.58146 -1.22687,0 -1.64755,0.33056 -6.35591,4.99429 l -4.16724,4.12773 -4.29943,-4.26809 c -2.36469,-2.34745 -4.559488,-4.3999 -4.877348,-4.56101 -2.58284,-1.30912 -5.59766,1.7057 -4.28854,4.28854 0.16111,0.31785 2.21359,2.51268 4.56106,4.8774 l 4.268138,4.29948 -4.268138,4.29947 c -2.34747,2.36472 -4.39995,4.55955 -4.56106,4.8774 -1.31053,2.58563 1.70292,5.59907 4.28854,4.28854 z m 20.818538,-65.32375 v -4.23333 H 70.805356 22.122016 v 4.23333 4.23334 h 48.68334 48.683324 z m 0,-14.69751 c 0,-3.15997 -0.0931,-4.29419 -0.40135,-4.89031 -0.87573,-1.69347 2.62973,-1.57884 -48.281974,-1.57884 -50.91171,0 -47.40626,-0.11463 -48.28198,1.57884 -0.30827,0.59612 -0.40136,1.73034 -0.40136,4.89031 v 4.11418 h 48.68334 48.683324 z m -89.350174,50.16239 c -0.91133,-0.55567 -1.66649,-1.75946 -1.66649,-2.65655 0,-0.89708 0.75516,-2.10087 1.66649,-2.65654 0.75846,-0.46246 1.35343,-0.51658 5.68884,-0.51747 5.38623,-10e-4 6.01929,0.15077 6.94288,1.66551 0.65413,1.0728 0.65413,1.94421 0,3.01701 -0.92359,1.51474 -1.55665,1.66661 -6.94288,1.6655 -4.33541,-7.9e-4 -4.93038,-0.055 -5.68884,-0.51746 z m 0,-10.58334 c -0.91133,-0.55567 -1.66649,-1.75946 -1.66649,-2.65654 0,-0.89708 0.75516,-2.10087 1.66649,-2.65654 0.80504,-0.49086 1.40482,-0.51648 12.09184,-0.51648 10.68702,0 11.28681,0.0256 12.09184,0.51648 0.91135,0.55567 1.6665,1.75946 1.6665,2.65654 0,0.89708 -0.75515,2.10087 -1.6665,2.65654 -0.80503,0.49087 -1.40482,0.51648 -12.09184,0.51648 -10.68702,0 -11.2868,-0.0256 -12.09184,-0.51648 z"
       id="path304" /></g></svg>
