<?xml version="1.0" encoding="UTF-8" standalone="no"?>
<!-- Created with Inkscape (http://www.inkscape.org/) -->

<svg
   width="99.872002mm"
   height="95.236mm"
   viewBox="0 0 99.872002 95.236"
   version="1.1"
   id="svg5"
   xml:space="preserve"
   inkscape:version="1.2 (dc2aedaf03, 2022-05-15)"
   sodipodi:docname="search_image.svg"
   xmlns:inkscape="http://www.inkscape.org/namespaces/inkscape"
   xmlns:sodipodi="http://sodipodi.sourceforge.net/DTD/sodipodi-0.dtd"
   xmlns="http://www.w3.org/2000/svg"
   xmlns:svg="http://www.w3.org/2000/svg"><sodipodi:namedview
     id="namedview7"
     pagecolor="#ffffff"
     bordercolor="#999999"
     borderopacity="1"
     inkscape:showpageshadow="0"
     inkscape:pageopacity="0"
     inkscape:pagecheckerboard="0"
     inkscape:deskcolor="#d1d1d1"
     inkscape:document-units="mm"
     showgrid="false"
     inkscape:zoom="0.71624579"
     inkscape:cx="454.45293"
     inkscape:cy="352.53261"
     inkscape:window-width="1920"
     inkscape:window-height="991"
     inkscape:window-x="-9"
     inkscape:window-y="-9"
     inkscape:window-maximized="1"
     inkscape:current-layer="layer1" /><defs
     id="defs2" /><g
     inkscape:label="Layer 1"
     inkscape:groupmode="layer"
     id="layer1"><g
       id="g8286"
       style="opacity:1" /><path
       style="opacity:1;fill:#85cefc;fill-opacity:1;stroke:none;stroke-width:2.21858;stroke-linecap:square;stroke-linejoin:miter;stroke-dasharray:none;stroke-opacity:1;paint-order:markers stroke fill"
       d="m 449.56634,618.8518 6.28276,-9.42413"
       id="path11162" /><g
       id="g15886"
       style="opacity:1"
       transform="translate(-46.502883,-91.404121)"><circle
         style="opacity:1;fill:#c8e8ff;fill-opacity:1;stroke:none;stroke-width:0.586999;stroke-linecap:square;stroke-linejoin:miter;stroke-dasharray:none;stroke-opacity:1;paint-order:markers stroke fill"
         id="path6150"
         cx="89.340775"
         cy="142.36617"
         r="42.838005" /><ellipse
         style="opacity:1;fill:#a0d9fd;fill-opacity:1;stroke:none;stroke-width:0.586999;stroke-linecap:square;stroke-linejoin:miter;stroke-dasharray:none;stroke-opacity:1;paint-order:markers stroke fill"
         id="path8250"
         cx="98.225853"
         cy="181.00661"
         rx="40.726681"
         ry="5.6333957" /><ellipse
         style="opacity:1;fill:#a0d9fd;fill-opacity:1;stroke:none;stroke-width:0.586999;stroke-linecap:square;stroke-linejoin:miter;stroke-dasharray:none;stroke-opacity:1;paint-order:markers stroke fill"
         id="path8252"
         cx="84.834999"
         cy="173.5262"
         rx="31.583954"
         ry="4.8022389" /><path
         style="opacity:1;fill:#a0d9fd;fill-opacity:1;stroke:none;stroke-width:0.586999;stroke-linecap:square;stroke-linejoin:miter;stroke-dasharray:none;stroke-opacity:1;paint-order:markers stroke fill"
         d="m 118.67071,163.64552 3.41698,-3.69403 -2.40112,4.34049 2.77052,-1.84702 -1.66231,3.32463 z"
         id="path11164" /><ellipse
         style="opacity:1;fill:#a0d9fd;fill-opacity:1;stroke:none;stroke-width:1.06836;stroke-linecap:square;stroke-linejoin:miter;stroke-dasharray:none;stroke-opacity:1;paint-order:markers stroke fill"
         id="path8288"
         cx="121.76399"
         cy="170.20239"
         rx="24.611006"
         ry="6.5569029" /><path
         style="opacity:1;fill:#ffffff;fill-opacity:0.996078;stroke:none;stroke-width:0.586999;stroke-linecap:square;stroke-linejoin:miter;stroke-dasharray:none;stroke-opacity:1;paint-order:markers stroke fill"
         d="m 97.383861,120.79478 -2.770524,1.84701 -4.617535,1.38526 -5.633397,0.73881 0.323229,-0.87734 1.662313,-2.26259 3.232277,-2.49347 0.969682,-0.23088 0.461754,0.78499 1.154385,0.60027 1.708488,-0.5541 0.969682,-0.78498 -0.09235,-0.96968 -1.708489,-1.43144 -1.800841,-1.06203 0.277053,-1.29291 -0.323228,0.0462 -0.461754,0.36941 -0.738804,1.06203 -5.217818,2.8167 -3.186099,2.58582 -1.985542,2.03171 -0.461754,2.90905 0.277051,1.80084 0.877334,0.73881 1.292911,0.64645 7.849811,-0.32322 6.603079,-1.15439 0.784982,-1.43143 0.831157,-3.97109 z"
         id="path8344" /><path
         style="opacity:1;fill:#ffffff;fill-opacity:0.996078;stroke:none;stroke-width:0.586999;stroke-linecap:square;stroke-linejoin:miter;stroke-dasharray:none;stroke-opacity:1;paint-order:markers stroke fill"
         d="m 105.81087,107.93493 c 0,0 -0.20779,-1.24673 -3.32463,-0.83115 -3.116838,0.41557 -4.963854,3.62476 -4.963854,3.62476 l -0.0231,4.20196 1.893191,5.17164 -0.484841,2.19333 0.346316,2.47039 0.992768,1.43143 1.29291,0.80807 1.01586,-0.16161 1.84702,-1.29291 2.33185,-1.96246 2.70126,-8.65788 -3.04757,-6.25676 z"
         id="path8562" /><path
         style="opacity:1;fill:#a0d9fd;fill-opacity:1;stroke:none;stroke-width:0.586999;stroke-linecap:square;stroke-linejoin:miter;stroke-dasharray:none;stroke-opacity:1;paint-order:markers stroke fill"
         d="m 73.268662,169.36032 -0.130604,-1.33869 0.71832,1.14278 -0.03265,-1.9917 0.881573,2.44882 z"
         id="path11166" /><path
         style="opacity:0.967655;fill:#41b0fb;fill-opacity:1;stroke:none;stroke-width:0.586999;stroke-linecap:square;stroke-linejoin:miter;stroke-dasharray:none;stroke-opacity:1;paint-order:markers stroke fill"
         d="m 87.177953,154.37355 -2.220262,1.56724 -3.003883,2.54677 -2.742679,2.41617 -3.069185,4.89764 -2.024359,3.85281 -2.154959,4.57112 -1.501942,5.94247 5.942467,1.11013 5.550657,0.65302 5.02824,0.26121 26.643152,-6.85669 7.96682,-6.07308 -1.11013,-3.33039 -1.37134,-3.06919 -5.28945,-7.3791 -2.02435,-2.15496 -1.50195,-2.67738 -2.15495,-2.80798 -0.26121,-1.43664 1.24073,-7.1832 0.13061,-3.26509 -0.26121,-3.13449 -0.32651,-3.33039 v -2.15496 l 0.65302,-2.02436 0.78362,-2.28557 -1.50194,-2.54677 -4.30992,5.35475 -2.54678,1.30604 -1.50194,-0.97953 -0.979527,-1.89375 -0.587716,-3.00389 -0.848923,0.84893 -0.587717,2.08966 -1.175432,4.44052 -3.918112,0.32651 z"
         id="path6206" /><path
         style="opacity:0.967655;fill:#41affe;fill-opacity:1;stroke-width:0.487;stroke-linecap:round;stroke-linejoin:round;paint-order:markers fill stroke"
         d="m 103.38666,109.98974 c 0,0 -0.46175,2.58582 2.72435,3.97108 0,0 0.60028,0.13853 1.33908,-0.13853 0.73881,-0.27705 1.89319,1.24674 0.55411,2.49348 0,0 -0.64646,0.50792 -1.06204,0.69263 -0.41557,0.1847 -1.56996,1.29291 -1.33908,4.1096 0,0 -0.27705,1.52379 -1.29291,2.4473 -1.01586,0.92351 0.27705,5.31017 0.27705,5.31017 0,0 2.632,-7.06484 5.54105,-5.03312 0,0 0.50792,0.46175 0.60027,-1.75466 0.0924,-2.21642 -0.9235,-2.53965 -0.69263,-4.80224 0.23088,-2.2626 0.55411,-2.8167 -0.27705,-4.34049 -0.83115,-1.52378 -2.12407,-6.04897 -4.89459,-5.91044 0,0 -0.13852,-0.0231 -0.25396,0.11543 -0.11544,0.13853 -0.5772,2.14716 -1.22365,2.83979 z"
         id="path358" /><path
         style="opacity:0.967655;fill:none;stroke:#ffffff;stroke-width:0.587;stroke-linecap:square;stroke-linejoin:miter;stroke-dasharray:none;stroke-opacity:1;paint-order:markers stroke fill"
         d="m 97.337686,120.88713 c 0,0 -4.479013,3.7402 -13.206156,3.83255 0,0 2.262593,-4.29431 6.279851,-5.86427 0,0 0.969683,2.53965 3.601679,0.87733 2.631996,-1.66231 -2.678172,-4.20196 -2.678172,-4.20196 0,0 0.369403,-1.15438 0,-1.24673 -0.369403,-0.0923 -1.062033,1.20056 -1.062033,1.20056 0,0 -10.435635,4.84841 -11.035915,9.32742 -0.600279,4.47901 2.077892,4.20196 4.063433,4.29431 1.985541,0.0924 9.88153,-0.3694 12.836754,-1.84701"
         id="path360" /><path
         style="opacity:0.967655;fill:none;stroke:#ffffff;stroke-width:0.087;stroke-linecap:square;stroke-linejoin:miter;stroke-dasharray:none;stroke-opacity:1;paint-order:markers stroke fill"
         d="m 110.36011,123.74698 c 0,0 4.79968,3.49365 7.90152,9.43612 3.10184,5.94247 3.26509,7.77092 3.33039,9.92588 0.0653,2.15496 -0.81627,9.86058 -2.25291,11.55842 0,0 -1.7305,4.83234 -6.00777,4.34258 0,0 -0.42446,-0.68567 0.16326,-1.24074 0,0 -0.65302,-0.68567 0.0326,-1.07748 0,0 0.68572,0.52242 0.75102,-0.52241 0.0653,-1.04483 1.11013,-1.76315 1.11013,-1.76315 l -0.94688,-0.16326 c 0,0 1.04483,-1.17543 2.48147,-1.24073 0,0 1.24074,-2.02436 1.14279,-5.51801 -0.098,-3.49364 -1.27339,-6.62813 -1.40399,-8.32598 0,0 -0.1151,-0.79371 -0.0227,-1.16312 0,0 -4.50215,-4.64062 -6.18755,-6.81086 0,0 -0.48484,3.97108 -1.20056,4.66371 0,0 -1.52378,-8.8195 0.50793,-12.28265"
         id="path1316"
         sodipodi:nodetypes="cssccccsccccc" /><path
         style="opacity:0.967655;fill:none;stroke:#41affe;stroke-width:0.587;stroke-linecap:square;stroke-linejoin:miter;stroke-dasharray:none;stroke-opacity:1;paint-order:markers stroke fill"
         d="m 98.815296,121.62593 c 0,0 -0.04618,4.57136 2.631994,5.35634 0,0 1.66232,0.32323 4.47902,-3.04757"
         id="path1414" /><path
         style="opacity:0.967655;fill:none;stroke:#41affe;stroke-width:0.587;stroke-linecap:square;stroke-linejoin:miter;stroke-dasharray:none;stroke-opacity:1;paint-order:markers stroke fill"
         d="m 97.614739,122.18004 c 0,0 -1.20056,6.9263 -3.740206,9.78917"
         id="path1416" /><path
         style="opacity:0.967655;fill:none;stroke:#41affe;stroke-width:0.687;stroke-linecap:square;stroke-linejoin:miter;stroke-dasharray:none;stroke-opacity:1;paint-order:markers stroke fill"
         d="m 109.23939,135.6517 c 0,0 -0.26551,3.75175 -0.68109,5.55259 -0.41558,1.80084 -0.78498,5.12547 -0.3694,6.88013 0,0 2.26259,2.72435 3.0014,4.61754 0,0 3.23227,3.7402 5.17164,6.3722 0,0 4.57136,5.72575 5.07929,10.29711 0,0 -18.52553,19.48165 -50.915244,10.6006 0,0 3.134488,-17.89271 16.847875,-25.72893"
         id="path1420"
         sodipodi:nodetypes="cscccccc" /><path
         style="opacity:0.967655;fill:#ffffff;fill-opacity:1;stroke:none;stroke-width:0.387001;stroke-linecap:square;stroke-linejoin:miter;stroke-dasharray:none;stroke-opacity:1;paint-order:markers stroke fill"
         d="m 115.21292,158.57358 c 0.56565,-0.11544 1.10763,-0.50258 1.10763,-0.50258 l -0.455,-0.93621 c 0,0 -1.27779,-1.13689 -1.28929,-0.94065 -0.0115,0.19625 -0.29023,0.78827 -0.29023,0.78827 z"
         id="path1424"
         sodipodi:nodetypes="cccscc" /><path
         style="opacity:0.967655;fill:#76c5fe;fill-opacity:1;stroke:none;stroke-width:0.586999;stroke-linecap:square;stroke-linejoin:miter;stroke-dasharray:none;stroke-opacity:1;paint-order:markers stroke fill"
         d="m 79.606343,160.875 1.616138,1.29291 1.385261,0.1847 1.616138,-0.41558 1.062032,-1.29291 0.969685,-2.63199 0.27705,-2.53965 -0.09235,-2.632 -0.692631,-1.61613 -0.646454,-0.50793 -0.969682,-0.0924 -0.600281,0.32323 -0.554104,-0.50793 -0.09235,-0.78498 0.600278,-0.41558 1.015858,-0.23087 -2.031715,-3.50933 -1.246735,-4.43284 -0.184703,-3.00139 1.523789,-3.46316 2.40112,-2.86287 3.139924,-1.75467 4.109609,-1.1082 4.340484,-0.23088 4.201956,0.41558 3.55551,1.29291 1.93936,1.80084 1.29291,1.98554 0.41558,3.0014 0.0923,2.03171 -0.50793,3.04758 -0.5541,2.17024 v 0.92351 l 0.73881,0.60028 0.0924,0.60028 -1.61614,0.87733 -1.20056,1.20056 -0.46176,2.07789 -0.0923,2.90905 1.10821,3.50933 1.43144,1.66231 1.98554,0.78498 h 2.30877 l 2.12406,-0.64645 0.0924,2.44729 0.32322,1.15439 0.50793,1.29291 0.27706,1.84701 0.50792,2.35495 v 2.63199 l -1.66231,4.52519 -2.26259,3.0014 -3.92491,2.63199 -5.6334,1.80084 -5.263986,0.64646 -3.186102,0.13852 -4.756063,-0.5541 -4.063434,-1.15438 -4.155784,-3.23228 -1.754663,-4.29431 -0.554104,-2.35494 0.507929,-2.40112 0.461753,-2.72435 0.784982,-1.84702 v -1.43143 l -0.369403,-1.29291 V 160.875 Z"
         id="path2547" /><path
         style="opacity:0.967655;fill:#87ccfc;fill-opacity:0.968627;stroke:none;stroke-width:0.586999;stroke-linecap:square;stroke-linejoin:miter;stroke-dasharray:none;stroke-opacity:1;paint-order:markers stroke fill"
         d="m 100.10821,129.10634 -18.747204,13.94496 1.939367,4.34049 24.011197,-12.83675 -1.10821,-2.58583 -2.67817,-1.84701 z"
         id="path6696" /><path
         style="opacity:0.967655;fill:#87ccfe;fill-opacity:1;stroke:none;stroke-width:0.586999;stroke-linecap:square;stroke-linejoin:miter;stroke-dasharray:none;stroke-opacity:1;paint-order:markers stroke fill"
         d="m 107.49627,142.4972 -21.517726,10.80504 0.507928,0.7388 -0.138525,2.40112 -0.738806,2.21642 -0.600279,2.17024 19.855408,-8.45009 -0.0924,-3.04758 0.50793,-1.24673 1.56996,-1.01586 0.83116,-0.41558 0.13853,-1.06203 -0.69264,-0.5541 -0.0923,-0.64646 z"
         id="path7103" /><path
         style="opacity:0.967655;fill:#87ccfe;fill-opacity:1;stroke:none;stroke-width:0.586999;stroke-linecap:square;stroke-linejoin:miter;stroke-dasharray:none;stroke-opacity:1;paint-order:markers stroke fill"
         d="m 78.035697,170.5684 28.863413,-12.08084 1.43664,1.30604 h 1.82845 l 1.56724,-0.71832 1.56725,-0.39181 0.1306,2.67737 0.91423,2.08966 -33.891656,15.34593 -1.240735,-1.76315 -1.175432,-2.93858 0.0653,-3.98341 z"
         id="path7105" /><path
         style="opacity:0.967655;fill:none;fill-opacity:1;stroke:#75c5fe;stroke-width:0.687;stroke-linecap:square;stroke-linejoin:miter;stroke-dasharray:none;stroke-opacity:1;paint-order:markers stroke fill"
         d="m 113.10278,158.87937 c 0,0 -6.79139,3.5916 -8.22803,-4.57113 -1.43664,-8.16273 2.67738,-6.72608 2.80798,-8.03212 0.13061,-1.30604 -1.11013,-0.45712 -0.45711,-2.87328 0.65302,-2.41617 3.06918,-13.38688 -7.509714,-14.49701 -10.578896,-1.11013 -15.841855,1.96097 -18.165116,7.84222 -1.183774,2.99668 -0.05845,7.61328 2.869127,12.18617 0.149092,0.23288 -1.278695,0.31736 -1.455047,0.53647 -0.373865,0.46451 0.100808,1.2981 0.504952,1.42156 5.411781,-2.82902 3.168931,17.32191 -3.736277,10.07678 -0.326509,-0.65302 -0.783622,0.32651 -0.195905,1.76315 0.587716,1.43664 -1.567244,5.28945 -1.567244,8.94635 0,3.65691 1.959055,8.03213 6.268976,9.59938 6.384625,4.01192 35.822518,3.70614 29.973548,-18.02331 -1.43664,-2.28557 -0.52243,-3.98342 -1.11014,-4.37523 z"
         id="path1534"
         sodipodi:nodetypes="csssssssccssccc" /><path
         id="path1536"
         style="opacity:0.967655;fill:#41affe;fill-opacity:1;stroke:none;stroke-width:0.387001;stroke-linecap:square;stroke-linejoin:miter;stroke-dasharray:none;stroke-opacity:1;paint-order:markers stroke fill"
         d="m 91.265747,91.40424 -0.854211,1.384928 c 0,0 -1.08519,-0.761729 -1.87017,0.02325 -0.784981,0.78498 -0.92374,2.216719 -0.461988,3.047876 0.461754,0.831154 0.80822,0.253731 0.80822,0.253731 l -0.161748,2.193148 -3.116605,0.06925 0.06925,1.246952 3.001367,-0.103352 0.522449,5.028117 -2.87321,0.0656 -0.130741,1.24075 2.938839,-0.19637 0.456819,6.46524 c 0,0 1.371303,0.32645 1.436605,2.15491 l 0.373621,-0.10956 0.161747,0.25373 -0.138493,1.08521 2.562635,1.82418 0.623217,0.85421 -0.184485,-4.87154 c 0,0 0.461688,-1.31595 0.992705,-1.63918 l -0.138493,-3.80958 h 3.070614 l -0.185002,-1.26969 -2.816366,0.046 -0.461987,-4.94078 3.347599,-0.16175 -0.04599,-1.2237 -3.301607,0.0925 -0.553971,-4.80229 c 0,0 1.131226,-1.985312 -0.438733,-3.116606 -1.56996,-1.131295 -1.939417,0.115238 -1.939417,0.115238 z m 0.446484,5.103564 c 0.556179,-0.0064 1.090224,0.304813 1.261939,0.991671 0.39249,1.569961 0.0925,3.162595 0.0925,3.162595 -0.438666,-1.085124 -1.039213,-0.0692 -1.039213,-0.0692 -0.346315,-0.62337 -0.784915,-0.27668 -0.992705,-0.23048 -0.207783,0.0462 -0.346131,0.89999 -0.04599,1.80041 0.30014,0.90045 1.384929,0.0698 1.384929,0.0698 0.784981,0.78498 1.06195,-0.416 1.06195,-0.416 l 0.06925,2.12442 c -0.715718,-0.90042 -1.177189,0.1385 -1.177189,0.1385 -0.09235,-0.5541 -0.415597,-0.41548 -0.646472,-0.41548 -0.230877,0 -0.554222,0.50766 -0.946713,0.39222 -0.392486,-0.11543 -0.438416,-0.60045 -0.322977,-2.17041 0.115438,-1.56996 -0.20774,-2.33164 -0.20774,-2.33164 0,0 0.02314,-0.184851 0.50798,-0.0925 0.48484,0.09235 0.530651,0.461688 0.807702,0.276986 0.277052,-0.184697 0.57731,-0.09202 0.946713,0.04651 0.369402,0.138526 0.807835,-1.039181 0.253731,-1.893425 -0.554104,-0.854243 -1.038696,0 -1.038696,0 -0.484842,-0.623367 -0.969734,-0.207639 -1.223698,0.0925 -0.253961,0.30014 -0.276986,0 -0.276986,0 0.06493,-0.93505 0.816603,-1.468177 1.531689,-1.476396 z m -0.492993,9.049056 c 0,0 0.808486,1.13125 1.131714,0.20774 0,0 0.94633,0.80829 1.107943,-0.18448 0,0 0.254065,0.4618 0.30024,1.2237 0.04618,0.76189 -0.300141,-0.16175 -0.715719,-0.16175 -0.415576,0 -0.577225,0.27699 -0.577225,0.27699 0,0 -0.508032,-0.71564 -1.015959,-0.34624 -0.507929,0.3694 -0.392477,1.47766 -0.06925,1.93942 0.323225,0.46175 0.992704,-0.0465 0.992704,-0.0465 0,0 0.623318,0.57739 0.923458,0.0925 0.300138,-0.48484 0.438848,-0.55402 0.669726,-0.34623 0,0 0.276969,2.44708 -0.369486,3.04736 -0.646454,0.60028 -2.33159,0.4848 -2.53938,-0.57723 -0.207788,-1.06204 -0.276986,-5.05602 -0.276986,-5.05602 z" /><path
         style="opacity:0.967655;fill:#41affe;fill-opacity:1;stroke:none;stroke-width:0.387001;stroke-linecap:square;stroke-linejoin:miter;stroke-dasharray:none;stroke-opacity:1;paint-order:markers stroke fill"
         d="m 91.473413,120.3792 0.877332,27.75139 6.002798,-0.46175 -3.601678,-28.76726 -0.369403,0.69264 -1.154385,0.69262 -1.108207,0.0924 -0.554107,-0.36941 z"
         id="path1631" /><path
         style="opacity:0.967655;fill:#41affe;fill-opacity:1;stroke:none;stroke-width:0.387001;stroke-linecap:square;stroke-linejoin:miter;stroke-dasharray:none;stroke-opacity:1;paint-order:markers stroke fill"
         d="m 100.43423,182.6819 c 0,0 -2.644726,-3.42835 -1.142784,-15.11738 l 0.946874,-0.0653 -0.0327,-2.67738 -7.117898,0.55507 0.522414,2.48147 h 0.587717 c 0,0 3.656903,9.82792 0.457113,15.01942 l -0.555016,0.45711 2.644725,-0.0653 z"
         id="path2413"
         sodipodi:nodetypes="ccccccccccc" /><path
         style="opacity:0.967655;fill:none;fill-opacity:1;stroke:#41affe;stroke-width:0.387001;stroke-linecap:square;stroke-linejoin:miter;stroke-dasharray:none;stroke-opacity:1;paint-order:markers stroke fill"
         d="m 93.320427,146.69916 -0.09235,12.09795 2.124067,7.75746"
         id="path2469" /><path
         style="opacity:0.967655;fill:none;fill-opacity:1;stroke:#41affe;stroke-width:0.387001;stroke-linecap:square;stroke-linejoin:miter;stroke-dasharray:none;stroke-opacity:1;paint-order:markers stroke fill"
         d="m 94.613337,144.66744 0.415579,14.17584 1.246735,8.03452"
         id="path2525" /><path
         style="opacity:0.967655;fill:none;fill-opacity:1;stroke:#41affe;stroke-width:0.387001;stroke-linecap:square;stroke-linejoin:miter;stroke-dasharray:none;stroke-opacity:1;paint-order:markers stroke fill"
         d="m 95.952425,146.42211 1.154383,12.28265 -0.184701,9.28125"
         id="path2527" /><path
         style="opacity:0.967655;fill:none;fill-opacity:1;stroke:#41affe;stroke-width:0.387001;stroke-linecap:square;stroke-linejoin:miter;stroke-dasharray:none;stroke-opacity:1;paint-order:markers stroke fill"
         d="m 97.753264,147.29944 1.20056,11.40532 -1.062035,7.52658"
         id="path2529" /><path
         style="opacity:0.967655;fill:#41affe;fill-opacity:1;stroke:none;stroke-width:0.387001;stroke-linecap:square;stroke-linejoin:miter;stroke-dasharray:none;stroke-opacity:1;paint-order:markers stroke fill"
         d="m 92.027517,158.01213 0.04617,1.10821 8.173043,-0.50794 -0.0923,-1.06203 z"
         id="path2531" /><path
         style="opacity:0.967655;fill:#41affe;fill-opacity:1;stroke:#41affe;stroke-width:0.387001;stroke-linecap:square;stroke-linejoin:miter;stroke-dasharray:none;stroke-opacity:1;paint-order:markers stroke fill"
         d="M 113.54524,156.30364 70.648321,153.57929"
         id="path2535" /><path
         style="opacity:0.967655;fill:#41affe;fill-opacity:1;stroke:#41affe;stroke-width:0.387001;stroke-linecap:square;stroke-linejoin:miter;stroke-dasharray:none;stroke-opacity:1;paint-order:markers stroke fill"
         d="m 107.31157,163.18377 c 0,0 -0.96969,-0.36941 -0.27706,-1.29291 0.69264,-0.92351 1.56997,-0.0924 1.33909,0.78498 -0.23088,0.87733 -1.52379,2.21642 -3.50933,0.32323 -1.98554,-1.8932 -1.80084,-8.49627 -2.67817,-9.97389 -0.87733,-1.47761 -1.24674,0.18471 -0.87733,0.50793 0.3694,0.32323 -1.10821,1.29291 -1.15439,0.36941 -0.0462,-0.92351 -0.0924,-1.20056 1.10821,-1.66232 1.20056,-0.46175 2.40112,1.98554 2.8167,5.77193 0.41558,3.78638 1.75466,6.83395 3.23228,5.17164 z"
         id="path2537" /><path
         style="opacity:0.967655;fill:#41affe;fill-opacity:1;stroke:#41affe;stroke-width:0.387001;stroke-linecap:square;stroke-linejoin:miter;stroke-dasharray:none;stroke-opacity:1;paint-order:markers stroke fill"
         d="m 86.163244,164.7999 c 0,0 1.246735,0.18471 0.877335,-0.96968 -0.369404,-1.15438 -2.077892,-0.60028 -1.939367,0.27705 0.138525,0.87734 0.784982,1.84702 2.909049,0.64646 2.124067,-1.20056 1.108207,-9.1889 1.523785,-10.25093 0.415579,-1.06204 0.969685,-1.06204 1.246736,-0.55411 0.277053,0.50793 -0.323226,0 -0.230876,0.55411 0.09235,0.5541 1.523786,0.60028 1.569964,-0.23088 0.04617,-0.83116 -1.01586,-1.84701 -2.031717,-1.43144 -1.01586,0.41558 -1.431438,1.66232 -1.523789,4.52519 -0.09235,2.86287 -0.04617,5.91045 -0.784981,6.51073 -0.738804,0.60028 -1.062033,0.96968 -1.616139,0.9235 z"
         id="path2539" /><path
         style="opacity:0.967655;fill:#63bdfe;fill-opacity:1;stroke:none;stroke-width:0.387001;stroke-linecap:square;stroke-linejoin:miter;stroke-dasharray:none;stroke-opacity:1;paint-order:markers stroke fill"
         d="m 114.34352,154.30824 -43.29512,-2.41617 -1.044829,2.28557 0.914226,0.1306 1.044829,-1.37134 39.507614,2.02436 v 1.43664 h 0.58771 l -0.0653,-1.24073 1.04483,0.0653 c 0,0 -0.32651,0.84892 0.19591,1.37134 l 0.49655,0.21776 0.43867,-0.0923 0.20779,-1.01586 0.46175,-0.7619 0.41558,-0.50792 -0.60028,-0.18471 z"
         id="path2533" /><path
         style="opacity:0.967655;fill:#41affe;fill-opacity:1;stroke:#41affe;stroke-width:0.387001;stroke-linecap:square;stroke-linejoin:miter;stroke-dasharray:none;stroke-opacity:1;paint-order:markers stroke fill"
         d="m 87.406511,158.1284 3.101837,0.16326"
         id="path2541" /><path
         style="opacity:0.967655;fill:#41affe;fill-opacity:1;stroke:#41affe;stroke-width:0.387001;stroke-linecap:square;stroke-linejoin:miter;stroke-dasharray:none;stroke-opacity:1;paint-order:markers stroke fill"
         d="m 101.96882,157.54069 2.87328,-0.88158"
         id="path2543" /><path
         style="opacity:0.967655;fill:#41affe;fill-opacity:1;stroke:none;stroke-width:0.586999;stroke-linecap:square;stroke-linejoin:miter;stroke-dasharray:none;stroke-opacity:1;paint-order:markers stroke fill"
         d="m 100.82604,120.6778 c 0,0 2.41617,0.73464 3.47732,-0.0817 l -1.81212,0.0817 -2.17129,-0.37549 z"
         id="path2545"
         sodipodi:nodetypes="ccccc" /><path
         style="opacity:0.967655;fill:#41affe;fill-opacity:1;stroke-width:0.487;stroke-linecap:round;stroke-linejoin:round;paint-order:markers fill stroke"
         d="m 104.02583,107.68273 c 0,0 -0.71832,3.33039 -3.19979,2.67738 -2.481472,-0.65302 -3.395697,2.08965 -2.41617,5.35475 0.979527,3.26509 1.82845,4.89764 4.24462,4.83233 2.41617,-0.0653 2.57919,-1.23003 2.57919,-1.23003 0,0 -0.32323,2.4473 -4.20196,1.24674 0,0 0.23087,1.38526 -3.694033,2.8167 0,0 -0.692631,-2.17025 -0.415579,-2.72435 0.277053,-0.5541 1.154385,-0.69263 1.292911,-1.70849 0.138526,-1.01586 -1.847015,-3.60168 -1.754664,-6.88013 0.09235,-3.27845 1.523787,-5.44869 5.956625,-5.49487 0,0 2.57125,-0.0427 1.60885,1.10997 z"
         id="path356" /><path
         style="opacity:1;fill:#ffffff;fill-opacity:1;stroke:none;stroke-width:0.7;stroke-linecap:square;stroke-linejoin:miter;stroke-dasharray:none;stroke-opacity:1;paint-order:markers stroke fill"
         d="m 91.047087,120.13906 c 0,0 2.612075,1.87742 3.836485,-0.8979 1.22441,-2.77533 -5.158846,-3.13449 -5.158846,-3.13449 z"
         id="path12393" /><path
         style="opacity:1;fill:#ffffff;fill-opacity:1;stroke:none;stroke-width:0.7;stroke-linecap:square;stroke-linejoin:miter;stroke-dasharray:none;stroke-opacity:1;paint-order:markers stroke fill"
         d="m 91.553177,114.48229 c 0,0 0.171418,-0.64486 -0.146928,-0.6367 -0.318347,0.008 -0.661181,0.44895 -0.661181,0.44895 z"
         id="path12665" /><path
         style="opacity:1;fill:#a0d9fd;fill-opacity:1;stroke:none;stroke-width:0.586999;stroke-linecap:square;stroke-linejoin:miter;stroke-dasharray:none;stroke-opacity:1;paint-order:markers stroke fill"
         d="m 65.56903,170.94123 -1.20056,-2.03172 1.847014,1.10821 1.477613,-3.04757 0.369401,3.50932 0.831157,-3.13992 0.554106,3.78638 z"
         id="path10974" /><path
         style="opacity:1;fill:#a0d9fd;fill-opacity:1;stroke:none;stroke-width:0.586999;stroke-linecap:square;stroke-linejoin:miter;stroke-dasharray:none;stroke-opacity:1;paint-order:markers stroke fill"
         d="m 130.95336,165.03078 -0.36941,-2.86287 1.20056,2.21642 3.04758,-2.49347 -1.75467,2.67817"
         id="path11168" /><path
         style="opacity:1;fill:#ffffff;fill-opacity:1;stroke:none;stroke-width:0.7;stroke-linecap:square;stroke-linejoin:miter;stroke-dasharray:none;stroke-opacity:1;paint-order:markers stroke fill"
         d="m 114.15707,154.61824 0.21009,-0.34103 0.24012,-0.20153 0.47329,-0.38095 0.75035,-0.42712 0.63491,-0.20779 0.45021,-0.0577 0.50793,-1.14284 c 0,0 0.40404,-1.21211 0.46176,-1.65077 0.0577,-0.43867 0.24242,-1.91628 0.1847,-2.73589 -0.0577,-0.81962 -0.1847,-2.58582 -0.40404,-3.40544 -0.21933,-0.81961 -0.58873,-3.01294 -0.83115,-3.86718 -0.24242,-0.85425 -0.24242,-2.06635 -0.23088,-2.17025 0.0115,-0.10389 -1.16593,-1.28136 -1.16593,-1.28136 l -2.8167,-3.03604 -2.18178,-2.49347 -0.24242,1.67386 -0.27705,1.22365 -0.21934,0.83116 -0.10389,0.3694 c 0,0 -0.17316,0.49638 -0.2886,0.56565 -0.11544,0.0693 -0.38095,-2.28568 -0.38095,-2.28568 l -0.21933,-2.90905 0.0115,-2.28568 0.26551,-2.71281 c 0,0 0.2655,-1.11975 0.61182,-1.73157 0.34631,-0.61182 0.11544,-0.31169 0.11544,-0.31169 0,0 -0.0462,-0.28859 0.27705,-0.16161 0.32323,0.12698 0.64646,0.45021 0.64646,0.45021 l 0.78498,0.70418 3.07066,3.02448 1.54687,1.974 1.15439,1.62768 1.37371,2.50501 c 0,0 1.72004,3.42853 1.73158,3.61323 0.0115,0.1847 0.57719,1.54687 0.57719,1.54687 l 0.40404,1.4199 0.16161,0.83115 0.0923,0.75035 0.0577,0.95814 -0.0462,1.82393 -0.11544,0.90042 -0.12698,1.44298 -0.24243,1.81238 -0.46175,2.51656 -0.31168,1.09666 -0.3694,1.16593 -0.38095,0.71572 -0.25397,0.3694 -0.11543,0.36941 -0.61183,1.07358 -0.72489,0.98159 -0.77581,0.74998 -0.58874,0.42712 -0.14735,0.12024 -0.62031,0.28957 -0.46738,0.14428 -1.59016,0.19048 c 0,0 -0.40427,-0.0178 -0.43001,-0.16739 -0.0779,-0.4531 -0.11544,-0.2886 -0.0115,-0.658 0.10389,-0.3694 0.31168,-0.48484 0.31168,-0.48484 0,0 -0.20779,-0.24242 -0.25396,-0.41558 -0.0462,-0.17316 -0.1039,-0.32323 0.0924,-0.51947 0.19624,-0.19625 0.16161,-0.13853 0.16161,-0.13853 0,0 0.26551,0.20202 0.63491,-0.0404 0.3694,-0.24242 0.1847,-0.72148 0.1847,-0.72148 0,0 0.0231,-0.38095 0.11544,-0.42713 0.0923,-0.0462 -0.20778,-0.43866 -0.28859,-0.88887 z"
         id="path11776"
         sodipodi:nodetypes="ccccccccssssccccccccsccccscsccccccccccccccccccccccccccccccsccsccscscc" /></g></g></svg>
