<?xml version="1.0" encoding="UTF-8" standalone="no"?>
<!-- Created with Inkscape (http://www.inkscape.org/) -->

<svg
   width="99.872208mm"
   height="95.235809mm"
   viewBox="0 0 99.872208 95.235809"
   version="1.1"
   id="svg5"
   xml:space="preserve"
   inkscape:version="1.2 (dc2aedaf03, 2022-05-15)"
   sodipodi:docname="search_images.svg"
   xmlns:inkscape="http://www.inkscape.org/namespaces/inkscape"
   xmlns:sodipodi="http://sodipodi.sourceforge.net/DTD/sodipodi-0.dtd"
   xmlns="http://www.w3.org/2000/svg"
   xmlns:svg="http://www.w3.org/2000/svg"><sodipodi:namedview
     id="namedview7"
     pagecolor="#ffffff"
     bordercolor="#999999"
     borderopacity="1"
     inkscape:showpageshadow="0"
     inkscape:pageopacity="0"
     inkscape:pagecheckerboard="0"
     inkscape:deskcolor="#d1d1d1"
     inkscape:document-units="mm"
     showgrid="false"
     showguides="true"
     inkscape:zoom="0.50646226"
     inkscape:cx="704.88965"
     inkscape:cy="632.8211"
     inkscape:window-width="1920"
     inkscape:window-height="991"
     inkscape:window-x="-9"
     inkscape:window-y="-9"
     inkscape:window-maximized="1"
     inkscape:current-layer="layer1" /><defs
     id="defs2" /><g
     inkscape:label="Layer 1"
     inkscape:groupmode="layer"
     id="layer1"
     transform="translate(-223.83956,-168.12149)"><g
       id="g11766"><circle
         style="fill:#ffd89f;fill-opacity:1;stroke:none;stroke-width:0.586999;stroke-linecap:square;stroke-linejoin:miter;stroke-dasharray:none;stroke-opacity:1;paint-order:markers stroke fill"
         id="circle9615"
         cx="266.67755"
         cy="219.08342"
         r="42.838005" /><ellipse
         style="fill:#ffcb7f;fill-opacity:1;stroke:none;stroke-width:0.586999;stroke-linecap:square;stroke-linejoin:miter;stroke-dasharray:none;stroke-opacity:1;paint-order:markers stroke fill"
         id="ellipse9617"
         cx="275.56262"
         cy="257.72388"
         rx="40.726681"
         ry="5.6333957" /><ellipse
         style="fill:#ffcb7f;fill-opacity:1;stroke:none;stroke-width:0.586999;stroke-linecap:square;stroke-linejoin:miter;stroke-dasharray:none;stroke-opacity:1;paint-order:markers stroke fill"
         id="ellipse9619"
         cx="262.17175"
         cy="250.24345"
         rx="31.583954"
         ry="4.8022389" /><path
         style="fill:#ffcb7f;fill-opacity:1;stroke:none;stroke-width:0.586999;stroke-linecap:square;stroke-linejoin:miter;stroke-dasharray:none;stroke-opacity:1;paint-order:markers stroke fill"
         d="m 296.00748,240.36277 3.41698,-3.69403 -2.40112,4.34049 2.77052,-1.84702 -1.66231,3.32463 z"
         id="path9621" /><ellipse
         style="fill:#ffcb7f;fill-opacity:1;stroke:none;stroke-width:1.06836;stroke-linecap:square;stroke-linejoin:miter;stroke-dasharray:none;stroke-opacity:1;paint-order:markers stroke fill"
         id="ellipse9623"
         cx="299.10077"
         cy="246.91966"
         rx="24.611006"
         ry="6.5569029" /><path
         style="fill:#ffffff;fill-opacity:0.996078;stroke:none;stroke-width:0.586999;stroke-linecap:square;stroke-linejoin:miter;stroke-dasharray:none;stroke-opacity:1;paint-order:markers stroke fill"
         d="m 274.72063,197.51203 -2.77052,1.84701 -4.61754,1.38526 -5.63339,0.73881 0.32323,-0.87734 1.66231,-2.26259 3.23228,-2.49347 0.96968,-0.23088 0.46175,0.78499 1.15439,0.60027 1.70848,-0.5541 0.96969,-0.78498 -0.0924,-0.96968 -1.70849,-1.43144 -1.80084,-1.06203 0.27705,-1.29291 -0.32323,0.0462 -0.46175,0.36941 -0.73881,1.06203 -5.21781,2.8167 -3.1861,2.58582 -1.98555,2.03171 -0.46175,2.90905 0.27705,1.80084 0.87734,0.73881 1.29291,0.64645 7.84981,-0.32322 6.60308,-1.15439 0.78498,-1.43143 0.83116,-3.97109 z"
         id="path9625" /><path
         style="fill:#ffffff;fill-opacity:0.996078;stroke:none;stroke-width:0.586999;stroke-linecap:square;stroke-linejoin:miter;stroke-dasharray:none;stroke-opacity:1;paint-order:markers stroke fill"
         d="m 283.14764,184.65218 c 0,0 -0.20779,-1.24673 -3.32463,-0.83115 -3.11684,0.41557 -4.96385,3.62476 -4.96385,3.62476 l -0.0231,4.20196 1.89319,5.17164 -0.48484,2.19333 0.34631,2.47039 0.99277,1.43143 1.29291,0.80807 1.01586,-0.16161 1.84702,-1.29291 2.33185,-1.96246 2.70126,-8.65788 -3.04757,-6.25676 z"
         id="path9627" /><path
         style="fill:#ffcb7f;fill-opacity:1;stroke:none;stroke-width:0.586999;stroke-linecap:square;stroke-linejoin:miter;stroke-dasharray:none;stroke-opacity:1;paint-order:markers stroke fill"
         d="m 250.60543,246.07757 -0.1306,-1.33869 0.71832,1.14278 -0.0326,-1.9917 0.88157,2.44882 z"
         id="path9629" /><path
         style="opacity:0.967655;fill:#ff9800;fill-opacity:1;stroke:none;stroke-width:0.586999;stroke-linecap:square;stroke-linejoin:miter;stroke-dasharray:none;stroke-opacity:1;paint-order:markers stroke fill"
         d="m 264.51472,231.0908 -2.22026,1.56724 -3.00388,2.54677 -2.74268,2.41617 -3.06918,4.89764 -2.02436,3.85281 -2.15496,4.57112 -1.50194,5.94247 5.94246,1.11013 5.55066,0.65302 5.02824,0.26121 26.64315,-6.85669 7.96682,-6.07308 -1.11013,-3.33039 -1.37134,-3.06919 -5.28945,-7.3791 -2.02435,-2.15496 -1.50195,-2.67738 -2.15495,-2.80798 -0.26121,-1.43664 1.24073,-7.1832 0.13061,-3.26509 -0.26121,-3.13449 -0.32651,-3.33039 v -2.15496 l 0.65302,-2.02436 0.78362,-2.28557 -1.50194,-2.54677 -4.30992,5.35475 -2.54678,1.30604 -1.50194,-0.97953 -0.97953,-1.89375 -0.58771,-3.00389 -0.84892,0.84893 -0.58772,2.08966 -1.17543,4.44052 -3.91812,0.32651 z"
         id="path9631" /><path
         style="opacity:0.967655;fill:#ff9800;fill-opacity:1;stroke-width:0.487;stroke-linecap:round;stroke-linejoin:round;paint-order:markers fill stroke"
         d="m 280.72343,186.70699 c 0,0 -0.46175,2.58582 2.72435,3.97108 0,0 0.60028,0.13853 1.33908,-0.13853 0.73881,-0.27705 1.89319,1.24674 0.55411,2.49348 0,0 -0.64646,0.50792 -1.06204,0.69263 -0.41557,0.1847 -1.56996,1.29291 -1.33908,4.1096 0,0 -0.27705,1.52379 -1.29291,2.4473 -1.01586,0.92351 0.27705,5.31017 0.27705,5.31017 0,0 2.632,-7.06484 5.54105,-5.03312 0,0 0.50792,0.46175 0.60027,-1.75466 0.0924,-2.21642 -0.9235,-2.53965 -0.69263,-4.80224 0.23088,-2.2626 0.55411,-2.8167 -0.27705,-4.34049 -0.83115,-1.52378 -2.12407,-6.04897 -4.89459,-5.91044 0,0 -0.13852,-0.0231 -0.25396,0.11543 -0.11544,0.13853 -0.5772,2.14716 -1.22365,2.83979 z"
         id="path9633" /><path
         style="opacity:0.967655;fill:none;stroke:#ffffff;stroke-width:0.587;stroke-linecap:square;stroke-linejoin:miter;stroke-dasharray:none;stroke-opacity:1;paint-order:markers stroke fill"
         d="m 274.67446,197.60438 c 0,0 -4.47902,3.7402 -13.20616,3.83255 0,0 2.26259,-4.29431 6.27985,-5.86427 0,0 0.96969,2.53965 3.60168,0.87733 2.632,-1.66231 -2.67817,-4.20196 -2.67817,-4.20196 0,0 0.3694,-1.15438 0,-1.24673 -0.3694,-0.0923 -1.06203,1.20056 -1.06203,1.20056 0,0 -10.43564,4.84841 -11.03592,9.32742 -0.60028,4.47901 2.07789,4.20196 4.06343,4.29431 1.98555,0.0924 9.88153,-0.3694 12.83676,-1.84701"
         id="path9635" /><path
         style="opacity:0.967655;fill:none;stroke:#ffffff;stroke-width:0.087;stroke-linecap:square;stroke-linejoin:miter;stroke-dasharray:none;stroke-opacity:1;paint-order:markers stroke fill"
         d="m 287.69688,200.46423 c 0,0 4.79968,3.49365 7.90152,9.43612 3.10184,5.94247 3.26509,7.77092 3.33039,9.92588 0.0653,2.15496 -0.81627,9.86058 -2.25291,11.55842 0,0 -1.7305,4.83234 -6.00777,4.34258 0,0 -0.42446,-0.68567 0.16326,-1.24074 0,0 -0.65302,-0.68567 0.0326,-1.07748 0,0 0.68572,0.52242 0.75102,-0.52241 0.0653,-1.04483 1.11013,-1.76315 1.11013,-1.76315 l -0.94688,-0.16326 c 0,0 1.04483,-1.17543 2.48147,-1.24073 0,0 1.24074,-2.02436 1.14279,-5.51801 -0.098,-3.49364 -1.27339,-6.62813 -1.40399,-8.32598 0,0 -0.1151,-0.79371 -0.0227,-1.16312 0,0 -4.50215,-4.64062 -6.18755,-6.81086 0,0 -0.48484,3.97108 -1.20056,4.66371 0,0 -1.52378,-8.8195 0.50793,-12.28265"
         id="path9637"
         sodipodi:nodetypes="cssccccsccccc" /><path
         style="opacity:0.967655;fill:none;stroke:#ff9a05;stroke-width:0.587;stroke-linecap:square;stroke-linejoin:miter;stroke-dasharray:none;stroke-opacity:1;paint-order:markers stroke fill"
         d="m 276.15207,198.34318 c 0,0 -0.0462,4.57136 2.63199,5.35634 0,0 1.66232,0.32323 4.47902,-3.04757"
         id="path9639" /><path
         style="opacity:0.967655;fill:none;stroke:#ff9800;stroke-width:0.587;stroke-linecap:square;stroke-linejoin:miter;stroke-dasharray:none;stroke-opacity:1;paint-order:markers stroke fill"
         d="m 274.95151,198.89729 c 0,0 -1.20056,6.9263 -3.74021,9.78917"
         id="path9641" /><path
         style="opacity:0.967655;fill:none;stroke:#fc9a08;stroke-width:0.687;stroke-linecap:square;stroke-linejoin:miter;stroke-dasharray:none;stroke-opacity:1;paint-order:markers stroke fill"
         d="m 286.57616,212.36895 c 0,0 -0.26551,3.75175 -0.68109,5.55259 -0.41558,1.80084 -0.78498,5.12547 -0.3694,6.88013 0,0 2.26259,2.72435 3.0014,4.61754 0,0 3.23227,3.7402 5.17164,6.3722 0,0 4.57136,5.72575 5.07929,10.29711 0,0 -18.52553,19.48165 -50.91524,10.6006 0,0 3.13449,-17.89271 16.84787,-25.72893"
         id="path9643"
         sodipodi:nodetypes="cscccccc" /><path
         style="opacity:0.967655;fill:#ffffff;fill-opacity:1;stroke:none;stroke-width:0.387001;stroke-linecap:square;stroke-linejoin:miter;stroke-dasharray:none;stroke-opacity:1;paint-order:markers stroke fill"
         d="m 292.54969,235.29083 c 0.56565,-0.11544 1.10763,-0.50258 1.10763,-0.50258 l -0.455,-0.93621 c 0,0 -1.27779,-1.13689 -1.28929,-0.94065 -0.0115,0.19625 -0.29023,0.78827 -0.29023,0.78827 z"
         id="path9645"
         sodipodi:nodetypes="cccscc" /><path
         style="opacity:1;fill:#ffb549;fill-opacity:1;stroke:none;stroke-width:0.586999;stroke-linecap:square;stroke-linejoin:miter;stroke-dasharray:none;stroke-opacity:1;paint-order:markers stroke fill"
         d="m 256.94311,237.59225 1.61614,1.29291 1.38526,0.1847 1.61614,-0.41558 1.06203,-1.29291 0.96969,-2.63199 0.27705,-2.53965 -0.0924,-2.632 -0.69263,-1.61613 -0.64646,-0.50793 -0.96968,-0.0924 -0.60028,0.32323 -0.5541,-0.50793 -0.0924,-0.78498 0.60027,-0.41558 1.01586,-0.23087 -2.03171,-3.50933 -1.24674,-4.43284 -0.1847,-3.00139 1.52379,-3.46316 2.40112,-2.86287 3.13992,-1.75467 4.10961,-1.1082 4.34049,-0.23088 4.20195,0.41558 3.55551,1.29291 1.93936,1.80084 1.29291,1.98554 0.41558,3.0014 0.0923,2.03171 -0.50793,3.04758 -0.5541,2.17024 v 0.92351 l 0.73881,0.60028 0.0924,0.60028 -1.61614,0.87733 -1.20056,1.20056 -0.46176,2.07789 -0.0923,2.90905 1.10821,3.50933 1.43144,1.66231 1.98554,0.78498 h 2.30877 l 2.12406,-0.64645 0.0924,2.44729 0.32322,1.15439 0.50793,1.29291 0.27706,1.84701 0.50792,2.35495 v 2.63199 l -1.66231,4.52519 -2.26259,3.0014 -3.92491,2.63199 -5.6334,1.80084 -5.26398,0.64646 -3.18611,0.13852 -4.75606,-0.5541 -4.06343,-1.15438 -4.15579,-3.23228 -1.75466,-4.29431 -0.5541,-2.35494 0.50792,-2.40112 0.46176,-2.72435 0.78498,-1.84702 v -1.43143 l -0.3694,-1.29291 v -1.20052 z"
         id="path9647" /><path
         style="opacity:0.967655;fill:#ffc268;fill-opacity:1;stroke:none;stroke-width:0.586999;stroke-linecap:square;stroke-linejoin:miter;stroke-dasharray:none;stroke-opacity:1;paint-order:markers stroke fill"
         d="m 277.44498,205.82359 -18.7472,13.94496 1.93936,4.34049 24.0112,-12.83675 -1.10821,-2.58583 -2.67817,-1.84701 z"
         id="path9649" /><path
         style="opacity:0.967655;fill:#ffc268;fill-opacity:1;stroke:none;stroke-width:0.586999;stroke-linecap:square;stroke-linejoin:miter;stroke-dasharray:none;stroke-opacity:1;paint-order:markers stroke fill"
         d="m 284.83304,219.21445 -21.51772,10.80504 0.50792,0.7388 -0.13852,2.40112 -0.73881,2.21642 -0.60028,2.17024 19.85541,-8.45009 -0.0924,-3.04758 0.50793,-1.24673 1.56996,-1.01586 0.83116,-0.41558 0.13853,-1.06203 -0.69264,-0.5541 -0.0923,-0.64646 z"
         id="path9651" /><path
         style="opacity:0.967655;fill:#ffc268;fill-opacity:1;stroke:none;stroke-width:0.586999;stroke-linecap:square;stroke-linejoin:miter;stroke-dasharray:none;stroke-opacity:1;paint-order:markers stroke fill"
         d="m 255.37247,247.28565 28.86341,-12.08084 1.43664,1.30604 h 1.82845 l 1.56724,-0.71832 1.56725,-0.39181 0.1306,2.67737 0.91423,2.08966 -33.89165,15.34593 -1.24074,-1.76315 -1.17543,-2.93858 0.0653,-3.98341 z"
         id="path9653" /><path
         style="opacity:0.967655;fill:none;fill-opacity:1;stroke:#ffb549;stroke-width:0.687;stroke-linecap:square;stroke-linejoin:miter;stroke-dasharray:none;stroke-opacity:1;paint-order:markers stroke fill"
         d="m 290.43955,235.59662 c 0,0 -6.79139,3.5916 -8.22803,-4.57113 -1.43664,-8.16273 2.67738,-6.72608 2.80798,-8.03212 0.13061,-1.30604 -1.11013,-0.45712 -0.45711,-2.87328 0.65302,-2.41617 3.06918,-13.38688 -7.50971,-14.49701 -10.5789,-1.11013 -15.84186,1.96097 -18.16512,7.84222 -1.18377,2.99668 -0.0584,7.61328 2.86913,12.18617 0.14909,0.23288 -1.2787,0.31736 -1.45505,0.53647 -0.37386,0.46451 0.10081,1.2981 0.50495,1.42156 5.41178,-2.82902 3.16893,17.32191 -3.73627,10.07678 -0.32651,-0.65302 -0.78363,0.32651 -0.19591,1.76315 0.58772,1.43664 -1.56724,5.28945 -1.56724,8.94635 0,3.65691 1.95905,8.03213 6.26897,9.59938 6.38463,4.01192 35.82252,3.70614 29.97355,-18.02331 -1.43664,-2.28557 -0.52243,-3.98342 -1.11014,-4.37523 z"
         id="path9655"
         sodipodi:nodetypes="csssssssccssccc" /><path
         id="path9657"
         style="opacity:0.967655;fill:#ff9800;fill-opacity:1;stroke:none;stroke-width:0.387001;stroke-linecap:square;stroke-linejoin:miter;stroke-dasharray:none;stroke-opacity:1;paint-order:markers stroke fill"
         d="m 268.60252,168.12149 -0.85421,1.38493 c 0,0 -1.08519,-0.76173 -1.87017,0.0233 -0.78498,0.78498 -0.92374,2.21672 -0.46199,3.04788 0.46175,0.83115 0.80822,0.25373 0.80822,0.25373 l -0.16175,2.19315 -3.1166,0.0693 0.0693,1.24695 3.00136,-0.10335 0.52245,5.02811 -2.87321,0.0656 -0.13074,1.24075 2.93884,-0.19637 0.45682,6.46524 c 0,0 1.3713,0.32645 1.4366,2.15491 l 0.37363,-0.10956 0.16174,0.25373 -0.13849,1.08521 2.56263,1.82418 0.62322,0.85421 -0.18448,-4.87154 c 0,0 0.46168,-1.31595 0.9927,-1.63918 l -0.13849,-3.80958 h 3.07061 l -0.185,-1.26969 -2.81637,0.046 -0.46198,-4.94078 3.3476,-0.16175 -0.046,-1.2237 -3.30161,0.0925 -0.55397,-4.80229 c 0,0 1.13122,-1.98531 -0.43873,-3.1166 -1.56996,-1.1313 -1.93942,0.11523 -1.93942,0.11523 z m 0.44648,5.10357 c 0.55618,-0.006 1.09023,0.30481 1.26194,0.99167 0.39249,1.56996 0.0925,3.16259 0.0925,3.16259 -0.43866,-1.08512 -1.03921,-0.0692 -1.03921,-0.0692 -0.34632,-0.62337 -0.78492,-0.27668 -0.99271,-0.23048 -0.20778,0.0462 -0.34613,0.89999 -0.046,1.80041 0.30014,0.90045 1.38493,0.0698 1.38493,0.0698 0.78498,0.78498 1.06195,-0.416 1.06195,-0.416 l 0.0693,2.12442 c -0.71572,-0.90042 -1.17719,0.1385 -1.17719,0.1385 -0.0924,-0.5541 -0.41559,-0.41548 -0.64647,-0.41548 -0.23088,0 -0.55422,0.50766 -0.94671,0.39222 -0.39249,-0.11543 -0.43842,-0.60045 -0.32298,-2.17041 0.11544,-1.56996 -0.20774,-2.33164 -0.20774,-2.33164 0,0 0.0231,-0.18485 0.50798,-0.0925 0.48484,0.0924 0.53065,0.46169 0.8077,0.27699 0.27706,-0.1847 0.57731,-0.092 0.94672,0.0465 0.3694,0.13852 0.80783,-1.03918 0.25373,-1.89343 -0.55411,-0.85424 -1.0387,0 -1.0387,0 -0.48484,-0.62336 -0.96973,-0.20764 -1.2237,0.0925 -0.25396,0.30014 -0.27698,0 -0.27698,0 0.0649,-0.93505 0.8166,-1.46817 1.53169,-1.47639 z m -0.49299,9.04905 c 0,0 0.80849,1.13125 1.13171,0.20774 0,0 0.94633,0.80829 1.10795,-0.18448 0,0 0.25406,0.4618 0.30024,1.2237 0.0462,0.76189 -0.30014,-0.16175 -0.71572,-0.16175 -0.41558,0 -0.57723,0.27699 -0.57723,0.27699 0,0 -0.50803,-0.71564 -1.01596,-0.34624 -0.50793,0.3694 -0.39247,1.47766 -0.0693,1.93942 0.32323,0.46175 0.99271,-0.0465 0.99271,-0.0465 0,0 0.62332,0.57739 0.92346,0.0925 0.30013,-0.48484 0.43884,-0.55402 0.66972,-0.34623 0,0 0.27697,2.44708 -0.36948,3.04736 -0.64646,0.60028 -2.33159,0.4848 -2.53938,-0.57723 -0.20779,-1.06204 -0.27699,-5.05602 -0.27699,-5.05602 z" /><path
         style="opacity:0.967655;fill:#ff9a05;fill-opacity:1;stroke:none;stroke-width:0.387001;stroke-linecap:square;stroke-linejoin:miter;stroke-dasharray:none;stroke-opacity:1;paint-order:markers stroke fill"
         d="m 268.81018,197.09645 0.87734,27.75139 6.00279,-0.46175 -3.60167,-28.76726 -0.36941,0.69264 -1.15438,0.69262 -1.10821,0.0924 -0.55411,-0.36941 z"
         id="path9659" /><path
         style="opacity:0.967655;fill:#ff9a05;fill-opacity:1;stroke:none;stroke-width:0.387001;stroke-linecap:square;stroke-linejoin:miter;stroke-dasharray:none;stroke-opacity:1;paint-order:markers stroke fill"
         d="m 277.771,259.39915 c 0,0 -2.64472,-3.42835 -1.14278,-15.11738 l 0.94687,-0.0653 -0.0327,-2.67738 -7.1179,0.55507 0.52242,2.48147 h 0.58771 c 0,0 3.65691,9.82792 0.45712,15.01942 l -0.55502,0.45711 2.64473,-0.0653 z"
         id="path9661"
         sodipodi:nodetypes="ccccccccccc" /><path
         style="opacity:0.967655;fill:none;fill-opacity:1;stroke:#fb9b0d;stroke-width:0.387001;stroke-linecap:square;stroke-linejoin:miter;stroke-dasharray:none;stroke-opacity:1;paint-order:markers stroke fill"
         d="m 270.6572,223.41641 -0.0924,12.09795 2.12407,7.75746"
         id="path9663" /><path
         style="opacity:0.967655;fill:none;fill-opacity:1;stroke:#fb9b0d;stroke-width:0.387001;stroke-linecap:square;stroke-linejoin:miter;stroke-dasharray:none;stroke-opacity:1;paint-order:markers stroke fill"
         d="m 271.95011,221.38469 0.41558,14.17584 1.24673,8.03452"
         id="path9665" /><path
         style="opacity:0.967655;fill:none;fill-opacity:1;stroke:#fb9b0d;stroke-width:0.387001;stroke-linecap:square;stroke-linejoin:miter;stroke-dasharray:none;stroke-opacity:1;paint-order:markers stroke fill"
         d="m 273.2892,223.13936 1.15438,12.28265 -0.1847,9.28125"
         id="path9667" /><path
         style="opacity:0.967655;fill:none;fill-opacity:1;stroke:#fb9b0d;stroke-width:0.387001;stroke-linecap:square;stroke-linejoin:miter;stroke-dasharray:none;stroke-opacity:1;paint-order:markers stroke fill"
         d="m 275.09004,224.01669 1.20056,11.40532 -1.06204,7.52658"
         id="path9669" /><path
         style="opacity:0.967655;fill:#ff9a05;fill-opacity:1;stroke:none;stroke-width:0.387001;stroke-linecap:square;stroke-linejoin:miter;stroke-dasharray:none;stroke-opacity:1;paint-order:markers stroke fill"
         d="m 269.36429,234.72938 0.0462,1.10821 8.17304,-0.50794 -0.0923,-1.06203 z"
         id="path9671" /><path
         style="opacity:0.967655;fill:none;fill-opacity:1;stroke:#fa9500;stroke-width:0.387001;stroke-linecap:square;stroke-linejoin:miter;stroke-dasharray:none;stroke-opacity:1;paint-order:markers stroke fill"
         d="m 290.88201,233.02089 -42.89692,-2.72435"
         id="path9673" /><path
         style="opacity:0.967655;fill:#ff9a05;fill-opacity:1;stroke:#fb9b0d;stroke-width:0.387001;stroke-linecap:square;stroke-linejoin:miter;stroke-dasharray:none;stroke-opacity:1;paint-order:markers stroke fill"
         d="m 284.64834,239.90102 c 0,0 -0.96969,-0.36941 -0.27706,-1.29291 0.69264,-0.92351 1.56997,-0.0924 1.33909,0.78498 -0.23088,0.87733 -1.52379,2.21642 -3.50933,0.32323 -1.98554,-1.8932 -1.80084,-8.49627 -2.67817,-9.97389 -0.87733,-1.47761 -1.24674,0.18471 -0.87733,0.50793 0.3694,0.32323 -1.10821,1.29291 -1.15439,0.36941 -0.0462,-0.92351 -0.0924,-1.20056 1.10821,-1.66232 1.20056,-0.46175 2.40112,1.98554 2.8167,5.77193 0.41558,3.78638 1.75466,6.83395 3.23228,5.17164 z"
         id="path9675" /><path
         style="opacity:0.967655;fill:#ff9a05;fill-opacity:1;stroke:#fb9b0d;stroke-width:0.387001;stroke-linecap:square;stroke-linejoin:miter;stroke-dasharray:none;stroke-opacity:1;paint-order:markers stroke fill"
         d="m 263.50002,241.51715 c 0,0 1.24673,0.18471 0.87733,-0.96968 -0.3694,-1.15438 -2.07789,-0.60028 -1.93937,0.27705 0.13853,0.87734 0.78499,1.84702 2.90905,0.64646 2.12407,-1.20056 1.10821,-9.1889 1.52379,-10.25093 0.41558,-1.06204 0.96968,-1.06204 1.24673,-0.55411 0.27706,0.50793 -0.32322,0 -0.23087,0.55411 0.0923,0.5541 1.52378,0.60028 1.56996,-0.23088 0.0462,-0.83116 -1.01586,-1.84701 -2.03172,-1.43144 -1.01586,0.41558 -1.43143,1.66232 -1.52378,4.52519 -0.0924,2.86287 -0.0462,5.91045 -0.78499,6.51073 -0.7388,0.60028 -1.06203,0.96968 -1.61613,0.9235 z"
         id="path9677" /><path
         style="opacity:0.967655;fill:#ffb549;fill-opacity:1;stroke:none;stroke-width:0.387001;stroke-linecap:square;stroke-linejoin:miter;stroke-dasharray:none;stroke-opacity:1;paint-order:markers stroke fill"
         d="m 291.68029,231.02549 -43.29512,-2.41617 -1.04483,2.28557 0.91423,0.1306 1.04483,-1.37134 39.50761,2.02436 v 1.43664 h 0.58771 l -0.0653,-1.24073 1.04483,0.0653 c 0,0 -0.32651,0.84892 0.19591,1.37134 l 0.49655,0.21776 0.43867,-0.0923 0.20779,-1.01586 0.46175,-0.7619 0.41558,-0.50792 -0.60028,-0.18471 z"
         id="path9679" /><path
         style="opacity:0.967655;fill:#41affe;fill-opacity:1;stroke:#fb9b0d;stroke-width:0.387001;stroke-linecap:square;stroke-linejoin:miter;stroke-dasharray:none;stroke-opacity:1;paint-order:markers stroke fill"
         d="m 264.74328,234.84565 3.10184,0.16326"
         id="path9681" /><path
         style="opacity:0.967655;fill:#41affe;fill-opacity:1;stroke:#fb9b0d;stroke-width:0.387001;stroke-linecap:square;stroke-linejoin:miter;stroke-dasharray:none;stroke-opacity:1;paint-order:markers stroke fill"
         d="m 279.30559,234.25794 2.87328,-0.88158"
         id="path9683" /><path
         style="opacity:0.967655;fill:#ff9a05;fill-opacity:1;stroke:none;stroke-width:0.586999;stroke-linecap:square;stroke-linejoin:miter;stroke-dasharray:none;stroke-opacity:1;paint-order:markers stroke fill"
         d="m 278.16281,197.39505 c 0,0 2.41617,0.73464 3.47732,-0.0817 l -1.81212,0.0817 -2.17129,-0.37549 z"
         id="path9685"
         sodipodi:nodetypes="ccccc" /><path
         style="opacity:0.967655;fill:#ff9800;fill-opacity:1;stroke-width:0.487;stroke-linecap:round;stroke-linejoin:round;paint-order:markers fill stroke"
         d="m 281.3626,184.39998 c 0,0 -0.71832,3.33039 -3.19979,2.67738 -2.48147,-0.65302 -3.3957,2.08965 -2.41617,5.35475 0.97953,3.26509 1.82845,4.89764 4.24462,4.83233 2.41617,-0.0653 2.57919,-1.23003 2.57919,-1.23003 0,0 -0.32323,2.4473 -4.20196,1.24674 0,0 0.23087,1.38526 -3.69403,2.8167 0,0 -0.69263,-2.17025 -0.41558,-2.72435 0.27705,-0.5541 1.15438,-0.69263 1.29291,-1.70849 0.13853,-1.01586 -1.84701,-3.60168 -1.75466,-6.88013 0.0924,-3.27845 1.52378,-5.44869 5.95662,-5.49487 0,0 2.57125,-0.0427 1.60885,1.10997 z"
         id="path9687" /><path
         style="fill:#ffffff;fill-opacity:1;stroke:none;stroke-width:0.7;stroke-linecap:square;stroke-linejoin:miter;stroke-dasharray:none;stroke-opacity:1;paint-order:markers stroke fill"
         d="m 268.38386,196.85631 c 0,0 2.61207,1.87742 3.83648,-0.8979 1.22441,-2.77533 -5.15884,-3.13449 -5.15884,-3.13449 z"
         id="path9689" /><path
         style="fill:#ffffff;fill-opacity:1;stroke:none;stroke-width:0.7;stroke-linecap:square;stroke-linejoin:miter;stroke-dasharray:none;stroke-opacity:1;paint-order:markers stroke fill"
         d="m 268.88995,191.19954 c 0,0 0.17142,-0.64486 -0.14693,-0.6367 -0.31835,0.008 -0.66118,0.44895 -0.66118,0.44895 z"
         id="path9691" /><path
         style="fill:#ffcb7f;fill-opacity:1;stroke:none;stroke-width:0.586999;stroke-linecap:square;stroke-linejoin:miter;stroke-dasharray:none;stroke-opacity:1;paint-order:markers stroke fill"
         d="m 242.9058,247.65848 -1.20056,-2.03172 1.84702,1.10821 1.47761,-3.04757 0.3694,3.50932 0.83116,-3.13992 0.5541,3.78638 z"
         id="path9693" /><path
         style="fill:#ffcb7f;fill-opacity:1;stroke:none;stroke-width:0.586999;stroke-linecap:square;stroke-linejoin:miter;stroke-dasharray:none;stroke-opacity:1;paint-order:markers stroke fill"
         d="m 308.29013,241.74803 -0.36941,-2.86287 1.20056,2.21642 3.04758,-2.49347 -1.75467,2.67817"
         id="path9695" /><path
         style="fill:#ffffff;fill-opacity:1;stroke:none;stroke-width:0.7;stroke-linecap:square;stroke-linejoin:miter;stroke-dasharray:none;stroke-opacity:1;paint-order:markers stroke fill"
         d="m 291.49384,231.33549 0.21009,-0.34103 0.24012,-0.20153 0.47329,-0.38095 0.75035,-0.42712 0.63491,-0.20779 0.45021,-0.0577 0.50793,-1.14284 c 0,0 0.40404,-1.21211 0.46176,-1.65077 0.0577,-0.43867 0.24242,-1.91628 0.1847,-2.73589 -0.0577,-0.81962 -0.1847,-2.58582 -0.40404,-3.40544 -0.21933,-0.81961 -0.58873,-3.01294 -0.83115,-3.86718 -0.24242,-0.85425 -0.24242,-2.06635 -0.23088,-2.17025 0.0115,-0.10389 -1.16593,-1.28136 -1.16593,-1.28136 l -2.8167,-3.03604 -2.18178,-2.49347 -0.24242,1.67386 -0.27705,1.22365 -0.21934,0.83116 -0.10389,0.3694 c 0,0 -0.17316,0.49638 -0.2886,0.56565 -0.11544,0.0693 -0.38095,-2.28568 -0.38095,-2.28568 l -0.21933,-2.90905 0.0115,-2.28568 0.26551,-2.71281 c 0,0 0.2655,-1.11975 0.61182,-1.73157 0.34631,-0.61182 0.11544,-0.31169 0.11544,-0.31169 0,0 -0.0462,-0.28859 0.27705,-0.16161 0.32323,0.12698 0.64646,0.45021 0.64646,0.45021 l 0.78498,0.70418 3.07066,3.02448 1.54687,1.974 1.15439,1.62768 1.37371,2.50501 c 0,0 1.72004,3.42853 1.73158,3.61323 0.0115,0.1847 0.57719,1.54687 0.57719,1.54687 l 0.40404,1.4199 0.16161,0.83115 0.0923,0.75035 0.0577,0.95814 -0.0462,1.82393 -0.11544,0.90042 -0.12698,1.44298 -0.24243,1.81238 -0.46175,2.51656 -0.31168,1.09666 -0.3694,1.16593 -0.38095,0.71572 -0.25397,0.3694 -0.11543,0.36941 -0.61183,1.07358 -0.72489,0.98159 -0.77581,0.74998 -0.58874,0.42712 -0.14735,0.12024 -0.62031,0.28957 -0.46738,0.14428 -1.59016,0.19048 c 0,0 -0.40427,-0.0178 -0.43001,-0.16739 -0.0779,-0.4531 -0.11544,-0.2886 -0.0115,-0.658 0.10389,-0.3694 0.31168,-0.48484 0.31168,-0.48484 0,0 -0.20779,-0.24242 -0.25396,-0.41558 -0.0462,-0.17316 -0.1039,-0.32323 0.0924,-0.51947 0.19624,-0.19625 0.16161,-0.13853 0.16161,-0.13853 0,0 0.26551,0.20202 0.63491,-0.0404 0.3694,-0.24242 0.1847,-0.72148 0.1847,-0.72148 0,0 0.0231,-0.38095 0.11544,-0.42713 0.0923,-0.0462 -0.20778,-0.43866 -0.28859,-0.88887 z"
         id="path9697"
         sodipodi:nodetypes="ccccccccssssccccccccsccccscsccccccccccccccccccccccccccccccsccsccscscc" /></g></g></svg>
